<?xml version="1.0" encoding="utf-8"?>
<!-- Generator: Adobe Illustrator 19.0.0, SVG Export Plug-In . SVG Version: 6.00 Build 0)  -->
<svg version="1.1" id="Laag_1" xmlns="http://www.w3.org/2000/svg" xmlns:xlink="http://www.w3.org/1999/xlink" x="0px" y="0px"
	 viewBox="0 0 1024 768" style="enable-background:new 0 0 1024 768;" xml:space="preserve">
<style type="text/css">
	.st0{stroke:#000000;stroke-width:3;stroke-miterlimit:10;}
	.st1{fill:#5CB253;}
	.st2{fill:#F3F0BA;}
	.st3{fill:#FFFFFF;}
	.st4{fill:#DC2C38;}
	.st5{fill:#DD2C38;}
	.st6{fill:#DA2C38;}
	.st7{fill:#009640;}
</style>
<path id="XMLID_278_" class="st0" d="M555.8,184.5"/>
<g>
	<circle id="XMLID_525_" class="st1" cx="535.6" cy="340.4" r="250.1"/>
	<g id="XMLID_641_">
		<path id="XMLID_386_" class="st2" d="M538.1,340.8l216.6-1c0.1,28.4-5.2,56.1-15.8,82.3L538.1,340.8z"/>
		<path id="XMLID_383_" class="st3" d="M754.3,340.3c0,28.1-5.2,55.5-15.7,81.4L540,341.2L754.3,340.3 M755,339.5l-218.9,1l0,0
			L739,422.7C749.5,397,755.2,368.9,755,339.5L755,339.5z"/>
	</g>
	<g id="XMLID_635_">
		<path id="XMLID_381_" class="st4" d="M737.6,255.6c11.2,26.5,16.9,54.5,17.1,83.5L538,340L737.6,255.6z"/>
		<path id="XMLID_377_" class="st3" d="M737.4,256.1c11,26.2,16.7,54,16.9,82.6L540,339.6L737.4,256.1 M737.8,255.1l-201.7,85.3
			l218.9-1C754.9,309.5,748.8,281,737.8,255.1L737.8,255.1z"/>
	</g>
	<g id="XMLID_629_">
		<path id="XMLID_375_" class="st2" d="M690.2,185.5c20.1,20,36,43.4,47,69.4l-199.5,84.4L690.2,185.5z"/>
		<path id="XMLID_372_" class="st3" d="M690.2,186.1c19.9,19.8,35.5,42.9,46.5,68.6l-197.3,83.5L690.2,186.1 M690.2,185L536.1,340.4
			l201.7-85.3C726.6,228.7,710.3,204.9,690.2,185L690.2,185z"/>
	</g>
	<g id="XMLID_623_">
		<path id="XMLID_370_" class="st2" d="M536.1,559c-28.2,0-55.7-5.3-81.7-15.8l81.4-200.7l1,216.6L536.1,559z"/>
		<path id="XMLID_367_" class="st3" d="M535.3,344.4l0.9,214.2H536c-28.1,0-55.4-5.3-81.2-15.7L535.3,344.4 M536.1,340.4
			L536.1,340.4l-82.3,202.9c25.4,10.3,53.2,16,82.2,16c0.3,0,0.7,0,1,0L536.1,340.4L536.1,340.4z"/>
	</g>
	<g id="XMLID_617_">
		<path id="XMLID_365_" class="st4" d="M453.6,542.9C427,532,403,516.2,382.5,496L535,342.1L453.6,542.9z"/>
		<path id="XMLID_362_" class="st3" d="M533.9,343.7l-80.5,198.6c-26.3-10.8-50-26.4-70.3-46.4L533.9,343.7 M536.1,340.4L382,495.9
			c20.4,20.2,44.8,36.5,71.9,47.4L536.1,340.4L536.1,340.4z"/>
	</g>
	<g id="XMLID_611_">
		<path id="XMLID_360_" class="st4" d="M618.6,138c26.6,10.9,50.6,26.7,71.1,46.9L537.2,338.8L618.6,138z"/>
		<path id="XMLID_357_" class="st3" d="M618.8,138.5c26.3,10.8,50,26.4,70.3,46.4L538.3,337.1L618.8,138.5 M618.4,137.5l-82.3,202.9
			l0,0L690.2,185C669.8,164.7,645.4,148.5,618.4,137.5L618.4,137.5z"/>
	</g>
	<g id="XMLID_605_">
		<path id="XMLID_355_" class="st5" d="M537.8,341.5l200.8,81.4c-10.9,26.6-26.7,50.6-46.9,71.1L537.8,341.5z"/>
		<path id="XMLID_352_" class="st3" d="M539.4,342.6L738,423.1c-10.8,26.3-26.4,50-46.4,70.3L539.4,342.6 M536.1,340.4L536.1,340.4
			l155.5,154.1c20.2-20.4,36.5-44.8,47.4-71.9L536.1,340.4L536.1,340.4z"/>
	</g>
	<g id="XMLID_599_">
		<path id="XMLID_350_" class="st2" d="M537.2,342.1L691,494.6c-20,20.1-43.4,36-69.4,47L537.2,342.1z"/>
		<path id="XMLID_347_" class="st3" d="M538.4,343.8l152.1,150.8c-19.8,19.9-42.9,35.5-68.6,46.5L538.4,343.8 M536.1,340.4
			l85.3,201.7c26.5-11.2,50.2-27.5,70.2-47.5L536.1,340.4L536.1,340.4z"/>
	</g>
	<g id="XMLID_593_">
		<path id="XMLID_345_" class="st2" d="M382,495.4c-20.1-20-36-43.4-47-69.4l199.5-84.4L382,495.4z"/>
		<path id="XMLID_342_" class="st3" d="M532.8,342.7L382,494.8c-19.9-19.8-35.5-42.9-46.5-68.6L532.8,342.7 M536.1,340.4
			l-201.7,85.3c11.2,26.5,27.5,50.2,47.5,70.2L536.1,340.4L536.1,340.4L536.1,340.4z"/>
	</g>
	<g id="XMLID_587_">
		<path id="XMLID_341_" class="st6" d="M536.5,342.4l84.4,199.5c-26.5,11.2-54.5,16.9-83.5,17.1L536.5,342.4z"/>
		<path id="XMLID_337_" class="st3" d="M536.9,344.3l83.5,197.4c-26.2,11-54,16.7-82.6,16.9L536.9,344.3 M536.1,340.4L536.1,340.4
			L536.1,340.4L536.1,340.4z M536.1,340.4l1,218.9c29.9-0.1,58.4-6.3,84.4-17.3L536.1,340.4L536.1,340.4z"/>
	</g>
	<g id="XMLID_581_">
		<path id="XMLID_334_" class="st6" d="M451.3,139c26.5-11.2,54.5-16.9,83.5-17.1l1,216.6L451.3,139z"/>
		<path id="XMLID_331_" class="st3" d="M534.4,122.3l0.9,214.3l-83.5-197.4C478,128.2,505.8,122.5,534.4,122.3 M535.1,121.5
			c-29.9,0.1-58.4,6.3-84.4,17.3L536,340.5L535.1,121.5L535.1,121.5z"/>
	</g>
	<g id="XMLID_575_">
		<path id="XMLID_329_" class="st2" d="M535.5,121.9h0.6c28.2,0,55.7,5.3,81.7,15.8l-81.4,200.7L535.5,121.9z"/>
		<path id="XMLID_326_" class="st3" d="M536.1,122.3c28.1,0,55.4,5.3,81.2,15.7l-80.5,198.6l-0.9-214.2L536.1,122.3 M536.1,121.5
			c-0.3,0-0.7,0-1,0l1,218.9l82.3-202.9C593,127.2,565.2,121.5,536.1,121.5L536.1,121.5z"/>
	</g>
	<g id="XMLID_569_">
		<path id="XMLID_324_" class="st2" d="M381.2,186.3c20-20.1,43.4-36,69.4-47L535,338.8L381.2,186.3z"/>
		<path id="XMLID_317_" class="st3" d="M450.4,139.8l83.5,197.3L381.7,186.3C401.6,166.4,424.6,150.8,450.4,139.8 M450.8,138.8
			c-26.5,11.2-50.2,27.5-70.2,47.5l155.5,154.1l0,0L450.8,138.8L450.8,138.8z"/>
	</g>
	<g id="XMLID_563_">
		<path id="XMLID_312_" class="st2" d="M317.6,341c-0.1-28.4,5.2-56.1,15.8-82.3l200.7,81.4L317.6,341z"/>
		<path id="XMLID_308_" class="st3" d="M333.6,259.2l198.6,80.5L318,340.6C317.9,312.5,323.2,285.1,333.6,259.2 M333.2,258.2
			c-10.4,25.7-16.1,53.8-16,83.2l218.9-1L333.2,258.2L333.2,258.2z"/>
	</g>
	<g id="XMLID_557_">
		<path id="XMLID_306_" class="st4" d="M333.7,258c10.9-26.6,26.7-50.6,46.9-71.1l153.8,152.5L333.7,258z"/>
		<path id="XMLID_303_" class="st3" d="M380.6,187.4l152.2,150.8l-198.6-80.5C345,231.4,360.6,207.8,380.6,187.4 M380.6,186.3
			c-20.2,20.4-36.5,44.8-47.4,71.9l202.9,82.3L380.6,186.3L380.6,186.3z"/>
	</g>
	<g id="XMLID_551_">
		<path id="XMLID_298_" class="st4" d="M334.6,425.3c-11.2-26.5-16.9-54.5-17.1-83.5l216.6-1L334.6,425.3z"/>
		<path id="XMLID_292_" class="st3" d="M532.2,341.2l-197.4,83.5c-11-26.2-16.7-54-16.9-82.6L532.2,341.2 M536.1,340.4L536.1,340.4
			l-218.9,1c0.1,29.9,6.3,58.4,17.3,84.4L536.1,340.4L536.1,340.4z"/>
	</g>
	<g id="XMLID_380_">
		
			<image style="overflow:visible;opacity:0.8;enable-background:new    ;" width="70" height="69" id="XMLID_413_" xlink:href="9EEE7B83.png"  transform="matrix(0.9857 0 0 0.9855 506.2065 317.2065)">
		</image>
		<g id="XMLID_401_">
			<path id="XMLID_412_" class="st7" d="M537,358.5c-9.9,0-18-8.1-18.1-18c0-10,8-18.1,18-18.2c10,0,18.1,8.1,18.2,18
				c0,4.8-1.8,9.4-5.2,12.8C546.4,356.6,541.9,358.5,537,358.5L537,358.5z"/>
			<g id="XMLID_408_">
				<path id="XMLID_409_" class="st3" d="M537,323.1c9.6,0,17.3,7.7,17.4,17.3c0,9.6-7.7,17.4-17.3,17.5H537
					c-9.6,0-17.3-7.7-17.4-17.3C519.6,330.9,527.3,323.1,537,323.1L537,323.1 M537,321.6L537,321.6c-10.4,0-18.8,8.5-18.8,18.9
					c0,10.3,8.5,18.7,18.8,18.7h0.1c10.4,0,18.8-8.5,18.7-18.9C555.7,330,547.3,321.6,537,321.6L537,321.6z"/>
			</g>
		</g>
	</g>
</g>
</svg>
