<svg xmlns="http://www.w3.org/2000/svg" viewBox="314.8 65.8 364.7 364.7">
  <circle id="circle" fill="#5CB253" cx="497.2" cy="248.2" r="182.4"/>
  <path fill="#F3F0BA" d="M499 248.5l157.9-.7c.1 20.7-3.8 40.9-11.5 60L499 248.5z"/>
  <path fill="#FFF" d="M656.7 248.1c0 20.5-3.8 40.5-11.4 59.4l-144.8-58.7 156.2-.7m.5-.5l-159.6.7 147.9 59.9c7.7-18.7 11.8-39.2 11.7-60.6z"/>
  <path fill="#DC2C38" d="M644.5 186.4c8.2 19.3 12.3 39.7 12.5 60.9l-158 .7 145.5-61.6z"/>
  <path fill="#FFF" d="M644.4 186.7c8 19.1 12.2 39.4 12.3 60.2l-156.3.7 144-60.9m.2-.7l-147.1 62.2 159.6-.7c0-21.8-4.4-42.6-12.5-61.5z"/>
  <path fill="#F3F0BA" d="M609.9 135.3c14.7 14.6 26.3 31.6 34.3 50.6l-145.5 61.5 111.2-112.1z"/>
  <path fill="#FFF" d="M609.9 135.7c14.5 14.4 25.9 31.3 33.9 50L500 246.6l109.9-110.9m0-.8L497.6 248.2l147-62.2c-8.1-19.2-20-36.6-34.7-51.1z"/>
  <path fill="#F3F0BA" d="M497.6 407.6c-20.6 0-40.6-3.9-59.6-11.5l59.4-146.3.7 157.9-.5-.1z"/>
  <path fill="#FFF" d="M497 251.1l.7 156.2h-.1c-20.5 0-40.4-3.9-59.2-11.4L497 251.1m.6-2.9l-60 147.9c18.5 7.5 38.8 11.7 59.9 11.7h.7l-.6-159.6z"/>
  <path fill="#DC2C38" d="M437.4 395.9c-19.4-7.9-36.9-19.5-51.8-34.2l111.2-112.2-59.4 146.4z"/>
  <path fill="#FFF" d="M496 250.6l-58.7 144.8c-19.2-7.9-36.5-19.3-51.3-33.8l110-111m1.6-2.4L385.2 361.6c14.9 14.7 32.7 26.6 52.4 34.6l60-148z"/>
  <path fill="#DC2C38" d="M557.7 100.6c19.4 7.9 36.9 19.5 51.8 34.2L498.4 247l59.3-146.4z"/>
  <path fill="#FFF" d="M557.9 101c19.2 7.9 36.5 19.2 51.3 33.8l-110 111L557.9 101m-.3-.7l-60 147.9L610 134.9c-14.9-14.8-32.7-26.6-52.4-34.6z"/>
  <path fill="#DD2C38" d="M498.8 249l146.4 59.4c-7.9 19.4-19.5 36.9-34.2 51.8L498.8 249z"/>
  <path fill="#FFF" d="M500 249.8l144.8 58.7c-7.9 19.2-19.3 36.5-33.8 51.3l-111-110m-2.4-1.6L611 360.6c14.7-14.9 26.6-32.7 34.6-52.4l-148-60z"/>
  <path fill="#F3F0BA" d="M498.4 249.4l112.1 111.2c-14.6 14.7-31.6 26.2-50.6 34.3l-61.5-145.5z"/>
  <path fill="#FFF" d="M499.3 250.7l110.9 110c-14.4 14.5-31.3 25.9-50 33.9l-60.9-143.9m-1.7-2.5l62.2 147.1c19.3-8.2 36.6-20.1 51.2-34.6L497.6 248.2z"/>
  <path fill="#F3F0BA" d="M385.2 361.2c-14.7-14.6-26.3-31.6-34.3-50.6l145.5-61.5-111.2 112.1z"/>
  <path fill="#FFF" d="M495.2 249.9l-110 110.9c-14.5-14.4-25.9-31.3-33.9-50l143.9-60.9m2.4-1.7l-147.1 62.2c8.2 19.3 20.1 36.6 34.6 51.2l112.5-113.4z"/>
  <g>
    <path fill="#DA2C38" d="M497.9 249.7l61.5 145.5c-19.3 8.2-39.7 12.3-60.9 12.5l-.6-158z"/>
    <path fill="#FFF" d="M498.2 251.1L559 395c-19.1 8-39.4 12.2-60.2 12.3l-.6-156.2m-.6-2.9zm0 0l.7 159.6c21.8-.1 42.6-4.6 61.5-12.6l-62.2-147z"/>
  </g>
  <g>
    <path fill="#DA2C38" d="M435.7 101.4c19.3-8.2 39.7-12.3 60.9-12.5l.7 157.9-61.6-145.4z"/>
    <path fill="#FFF" d="M496.3 89.2l.7 156.3-60.9-143.9c19.1-8.1 39.4-12.3 60.2-12.4m.5-.6c-21.8.1-42.6 4.6-61.5 12.6l62.2 147.1-.7-159.7z"/>
  </g>
  <g>
    <path fill="#F3F0BA" d="M497.1 88.9h.4c20.6 0 40.6 3.9 59.6 11.5l-59.4 146.3-.6-157.8z"/>
    <path fill="#FFF" d="M497.6 89.2c20.5 0 40.4 3.9 59.2 11.4l-58.7 144.8-.7-156.2h.2m0-.6h-.7l.7 159.6 60-147.9c-18.5-7.5-38.8-11.7-60-11.7z"/>
  </g>
  <g>
    <path fill="#F3F0BA" d="M384.6 135.8c14.6-14.7 31.6-26.2 50.6-34.3L496.8 247 384.6 135.8z"/>
    <path fill="#FFF" d="M435.1 101.9L496 245.8l-111-110c14.5-14.5 31.3-25.8 50.1-33.9m.3-.7c-19.3 8.2-36.6 20.1-51.2 34.6l113.4 112.4-62.2-147z"/>
  </g>
  <g>
    <path fill="#F3F0BA" d="M338.3 248.6c-.1-20.7 3.8-40.9 11.5-60L496.1 248l-157.8.6z"/>
    <path fill="#FFF" d="M349.9 189l144.8 58.7-156.2.7c0-20.5 3.8-40.5 11.4-59.4m-.3-.7c-7.6 18.7-11.7 39.2-11.7 60.7l159.6-.7-147.9-60z"/>
  </g>
  <g>
    <path fill="#DC2C38" d="M350 188.1c7.9-19.4 19.5-36.9 34.2-51.8l112.1 111.2L350 188.1z"/>
    <path fill="#FFF" d="M384.2 136.6l111 110-144.8-58.7c7.8-19.2 19.2-36.4 33.8-51.3m0-.8c-14.7 14.9-26.6 32.7-34.6 52.4l147.9 60-113.3-112.4z"/>
  </g>
  <g>
    <path fill="#DC2C38" d="M350.6 310.1c-8.2-19.3-12.3-39.7-12.5-60.9l157.9-.7-145.4 61.6z"/>
    <path fill="#FFF" d="M494.7 248.8l-143.9 60.9c-8-19.1-12.2-39.4-12.3-60.2l156.2-.7m2.9-.6l-159.6.7c.1 21.8 4.6 42.6 12.6 61.5l147-62.2z"/>
  </g>
  <g>
    <path fill="#009640" d="M498.2 261.4c-7.2 0-13.1-5.9-13.2-13.1 0-7.3 5.8-13.2 13.1-13.3 7.3 0 13.2 5.9 13.3 13.1 0 3.5-1.3 6.9-3.8 9.3-2.5 2.6-5.8 4-9.4 4z"/>
    <path fill="#FFF" d="M498.2 235.6c7 0 12.6 5.6 12.7 12.6 0 7-5.6 12.7-12.6 12.8h-.1c-7 0-12.6-5.6-12.7-12.6 0-7.1 5.7-12.8 12.7-12.8m0-1.1c-7.6 0-13.7 6.2-13.7 13.8 0 7.5 6.2 13.6 13.7 13.6h.1c7.6 0 13.7-6.2 13.6-13.8 0-7.5-6.2-13.6-13.7-13.6z"/>
  </g>
</svg>
